<svg version="1.2" xmlns="http://www.w3.org/2000/svg" viewBox="0 0 3006 2000" width="600" height="399"><defs><linearGradient id="P" gradientUnits="userSpaceOnUse"/><linearGradient id="g1" x1="698.3" y1="65.5" x2="936.3" y2="65.5" href="#P"><stop stop-color="#ff995c"/><stop offset="1" stop-color="#ffce64"/></linearGradient><linearGradient id="g2" x1="861.1" y1="290.8" x2="970.2" y2="290.8" href="#P"><stop stop-color="#ff995c"/><stop offset="1" stop-color="#ffce64"/></linearGradient><linearGradient id="g3" x1="1151.5" y1="447.5" x2="1167" y2="447.5" href="#P"><stop stop-color="#ff995c"/><stop offset="1" stop-color="#ffce64"/></linearGradient><linearGradient id="g4" x1="1830.5" y1="447.5" x2="1846" y2="447.5" href="#P"><stop stop-color="#ff995c"/><stop offset="1" stop-color="#ffce64"/></linearGradient><linearGradient id="g5" x1="1259.9" y1="474" x2="1713" y2="474" href="#P"><stop stop-color="#ff995c"/><stop offset="1" stop-color="#ffce64"/></linearGradient></defs><style>.s0{fill:#bbd070}.s1{fill:#97a43c}.s2{fill:#48753a}.s3{fill:#ebebeb}.s4{fill:#005ca6}.s5{fill:url(#g1)}.s6{fill:url(#g2)}.s7{fill:#ffd179}.s8{fill:#4ba2f4}.s9{fill:#f0f0f0}.s10{fill:#ffdf69}.s11{fill:#deba35}.s12{fill:#375eab}.s13{fill:#c9c9c9}.s14{fill:#ffdc7d}.s15{fill:url(#g3)}.s16{fill:url(#g4)}.s17{fill:url(#g5)}.s18{fill:#eea886}.s19{fill:#202338}.s20{fill:#81807e}.s21{fill:#292c47}.s22{fill:#dbd8e3}.s23{fill:#1d2033}.s24{fill:#323657}.s25{fill:#eea987}.s26{fill:#d44040}.s27{fill:#c4c1cc}.s28{fill:#3a4066}.s29{fill:#a77860}.s30{fill:#666fb3}.s31{fill:#2d314f}.s32{fill:#b8b8b8}.s33{fill:#d88a51}.s34{fill:#004e8c}.s35{fill:#cccccc}.s36{fill:#ffbf55}.s37{fill:#464240}.s38{fill:#919191}.s39{fill:#bd8d3f}.s40{fill:#e0e0e0}.s41{fill:#33a4ff}.s42{fill:#007fe6}.s43{fill:#0064b5}.s44{fill:#353a3d}.s45{fill:#2d3133}.s46{fill:#decbc4}.s47{fill:#495055}.s48{fill:#d6d6d6}.s49{fill:#3c4145}.s50{fill:#51565c}.s51{fill:#f5e2d9}.s52{fill:#ad9f99}.s53{fill:#69737a}</style><path class="s0" d="m386.6 608.7q169.5-72.8 234.9 25.9q65.5 98.7-26.2 92.6q-5.1 45.6-91.7-62.4q-40.8-50.9-117-56.1z" /><path class="s1" d="m357.1 327.4q150.4-46.7 249.4 144.1q99.1 190.8 188.1 205.9q-340.2 61-437.5-350z" /><path class="s2" d="m732 688.4c-13.1 63.4-158.3-58.9-172.6-168.6c-14.3-109.7 14.2-190.1-14.7-260.5q252.2 116.8 187.3 429.1z" /><path class="s3" d="m819 408.9h-65.9h-29.5h-38.8h-18.2h-49.5c0-17.8 15.2-32.2 33.9-32.2c4.4 0 8.6 0.8 12.5 2.3c5.1-19.9 23.9-34.7 46.4-34.7c20.2 0 37.5 12 44.4 28.9c5.3-1.7 11-2.5 17-2.5c26.4 0 47.7 17.1 47.7 38.2z" /><path class="s3" d="m508.5 527h-50.3h-22.5h-29.6h-13.8h-37.8c0-13.5 11.5-24.5 25.8-24.5c3.4 0 6.6 0.6 9.6 1.7c3.8-15.1 18.2-26.4 35.3-26.4c15.4 0 28.6 9.1 33.9 22c4-1.3 8.4-1.9 13-1.9c20.1 0 36.4 13 36.4 29.1z" /><path class="s4" d="m2406.7 1683.1h-1826c-46.3 0-83.8-37.5-83.8-83.8v-1015.6c0-46.3 37.5-83.8 83.8-83.8h1826c46.3 0 83.8 37.5 83.8 83.8v1015.6c0 46.3-37.5 83.8-83.8 83.8z" /><path fill-rule="evenodd" class="s5" d="m936.3 164.7v43.5l-19.6 4c-2.5 9.3-6.2 18.2-10.9 26.3l11.1 16.7l-15.4 15.4l-15.5 15.4l-16.7-11.1c-8.1 4.8-16.9 8.5-26.2 10.9l-4 19.6h-43.6l-3.9-19.6c-9.4-2.4-18.2-6.1-26.3-10.9l-16.7 11.1l-15.4-15.4l-15.4-15.4l11.1-16.7c-4.8-8.1-8.5-17-10.9-26.3l-19.7-4v-43.5l19.7-4c2.4-9.3 6.1-18.2 10.9-26.3l-11.1-16.7l15.4-15.4l15.4-15.4l16.7 11.1c8.1-4.8 16.9-8.5 26.3-10.9l3.9-19.6h43.6l4 19.6c9.3 2.4 18.1 6.1 26.2 10.9l16.7-11.1l15.5 15.4l15.4 15.4l-11.1 16.7c4.7 8.1 8.4 17 10.9 26.3zm-42.7 21.8c0-42.2-34.2-76.3-76.3-76.3c-42.2 0-76.4 34.1-76.4 76.3c0 42.1 34.2 76.3 76.4 76.3c42.1 0 76.3-34.2 76.3-76.3z" /><path fill-rule="evenodd" class="s6" d="m970.2 337.4v19.9l-9 1.9c-1.1 4.2-2.8 8.3-5 12l5.1 7.7l-7.1 7l-7.1 7.1l-7.6-5.1c-3.7 2.2-7.8 3.9-12.1 5l-1.8 9h-19.9l-1.9-9c-4.2-1.1-8.3-2.8-12-5l-7.7 5.1l-7-7.1l-7.1-7l5.1-7.7c-2.2-3.7-3.9-7.8-5-12l-9-1.9v-19.9l9-1.8c1.1-4.3 2.8-8.4 5-12.1l-5.1-7.7l7.1-7l7-7.1l7.7 5.1c3.7-2.2 7.8-3.9 12-5l1.9-9h19.9l1.8 9c4.3 1.1 8.4 2.8 12.1 5l7.6-5.1l7.1 7.1l7.1 7l-5.1 7.7c2.2 3.7 3.9 7.8 5 12.1zm-19.6 9.9c0-19.3-15.6-35-35-35c-19.3 0-35 15.7-35 35c0 19.4 15.7 35 35 35c19.4 0 35-15.6 35-35z" /><path class="s7" d="m420.4 902.9l-28.7-25.1c-2.4-2.1-2.6-5.6-0.6-8c2.1-2.4 5.7-2.6 8-0.6l20.4 17.8l29-32.4c2.1-2.3 5.6-2.5 8-0.4c2.3 2.1 2.5 5.7 0.4 8z" /><path class="s8" d="m1080.2 1094.1h-245.9v-246h245.9z" /><path class="s9" d="m815.6 829.3h-246v-246h246z" /><path class="s9" d="m1496.3 1092.9h-246v-245.9h246z" /><path class="s8" d="m1760.9 1092.9h-245.9v-245.9h245.9z" /><path class="s9" d="m1080.2 1357.6h-245.9v-246h245.9z" /><path class="s10" d="m1080.2 1622.3h-245.9v-246h245.9z" /><path class="s9" d="m1496.3 1623.3h-246v-246h246z" /><path class="s9" d="m815.6 1358.2h-246v-246h246z" /><path class="s10" d="m1760.9 1376.3q-0.2 113.9-26.8 210.4l-56.9 35.6h-200.6q38.1-101.4 38.3-246z" /><path class="s11" d="m1677.2 1622.3v-36.4h56.9z" /><path class="s8" d="m1496.2 1111.6q-0.1 113.9-26.8 210.4l-56.9 35.6h-200.6q38.1-101.4 38.4-246z" /><path class="s12" d="m1412.5 1357.6v-36.4h56.9z" /><path class="s9" d="m1760.9 829.4h-245.9v-245.9h245.9z" /><path class="s10" d="m1496.2 583.5q-0.1 113.8-26.8 210.3l-56.9 35.6h-200.6q38.1-101.4 38.4-245.9z" /><path class="s11" d="m1412.5 829.4v-36.4h56.9z" /><path class="s9" d="m815.6 1376.3q-0.2 113.9-26.9 210.4l-56.9 35.6h-200.6q38.1-101.4 38.4-246z" /><path class="s13" d="m731.8 1622.3v-36.4h56.9z" /><path class="s10" d="m2161.5 1094.1h-245.9v-246h245.9z" /><path class="s9" d="m2161.5 829.3h-245.9v-246h245.9z" /><path class="s9" d="m2426.2 829.3h-246v-246h246z" /><path class="s9" d="m2426.2 1357.6h-246v-246h246z" /><path class="s10" d="m2426.2 1622.3h-246v-246h246z" /><path class="s9" d="m2161.5 1358.2h-245.9v-246h245.9z" /><path class="s9" d="m2161.5 1376.3q-0.1 113.9-26.8 210.4l-56.9 35.6h-200.6q38.1-101.4 38.4-246z" /><path class="s13" d="m2077.8 1622.3v-36.4h56.9z" /><path class="s9" d="m1760.9 1111.6q-0.2 113.9-26.8 210.4l-56.9 35.6h-200.6q38.1-101.4 38.3-246z" /><path class="s13" d="m1677.2 1357.6v-36.4h56.9z" /><path class="s14" d="m1203.5 419.6h60v4.5h-60z" /><path class="s14" d="m1203.5 426h60v12.2h-60z" /><path class="s15" d="m1167 1720.7h-15.5v-1271.2h15.5z" /><path class="s16" d="m1846 1720.7h-15.5v-1271.2h15.5z" /><path class="s17" d="m1713 524.1h-453.1v-48.1h453.1z" /><path class="s18" d="m2113.3 1289.8q-4.2-1.7-5.4-2.5c-1.3-0.8-11 1.1-18.6-1.9c-7.5-3-0.4-21.3 2.2-21.9c2.6-0.5 13.1 5.2 12.4 2.5c-0.6-2.6-5.9-14.3-3.5-16c2.5-1.7 4.6 6.3 6 8.4c1 1.6 4.4 6.7 4.9 10.8q0.5 4.8 8.2 7.9z" /><path class="s19" d="m2318.4 1766.6q5.3 9.8 8.8 13.7c3.5 4 16.8 10.9 16.8 22.5c0.1 12.6-22.4 9.1-31.2 8.7c-8.8-0.5-9.5-7.2-13.2-14.3c-3.7-7.2-7.4-6-8.1-11.7q-0.7-5.7 3.6-18.9z" /><path class="s19" d="m2208.4 1764c-0.2 1.6 4.4 15.5 2.3 20.7c-2.1 5.1-4 2-22.8 12.4c-12.6 6.9-44.4 2.4-44.3-4.5c0.1-6.9 7.8-10.1 18.8-12.6q11-2.5 21.9-14.5q24.2-3.6 24.1-1.5z" /><path class="s20" d="m2206.9 1756.3q0.9 4 1.5 7.7c0.7 4.5-23.9 1.6-24.1 1.5q-0.2-0.2 1.2-5.8z" /><path class="s20" d="m2317.1 1760.7q2.1 4.1 2.3 7.7c0.1 4.4-24.7 0-24.9-0.1q-0.2-0.1 0.9-5.5z" /><path class="s21" d="m2317.7 1406.8c20.2 55.5 4.5 193.5 5.3 206q2.3 32.9-0.7 151.4q-6.5 5.5-31.2 0.7q-10.9-137.5-14.5-155.1c-3.5-17.6-9.5-123.4-14.4-129.5c-4.8-6-24.5 89.8-29.8 112.1q-5.6 23.9-20.9 168.3q-31 4.7-29.7-1.8c1.4-6.6 1.8-117.1 3.7-139.5c1.5-17.9 3.3-46.4 8.8-80.9q4.6-29.5 13.6-115.7q99.2-45.3 109.8-16z" /><path class="s22" d="m2324.4 1294.4c-0.6 2.4-4 44.4-4.3 60.5q-0.4 16.8 1 74.5l-22.5 6l-71.7 0.7l-16.4-6.7q1.8-18.6 2.5-31.6c0.4-8.3 2-23.1 1.6-37.5q0.2-15.3-1.3-21.8q-0.1-28.9-1.9-57.6q-1.4-19.7-2-36.8c3.1-1.7 6.9-3.7 10-5.1c9.4-4.5 22.5-10.5 31-14.4q4.9-2.3 9.7-3.9q33.7-3.2 36.4-3.1c0.9 0.1 5.1 1.5 10.6 3.7c12 4.5 35 13.7 38.6 16.3c5.4 3.9 40.6 97 41.1 103.4q1 11.5-44 50.7q0.2-11.3-5.7-12.4c-5.9-1.1 41.8-36.7 36.6-50.9q-25.2-68.9-49.3-34z" /><path class="s23" d="m2212.7 1423.3q49.2 4.2 92.4 0v14.1q-64.3 6.2-94.6-2.7z" /><path class="s24" d="m2254.7 1222.7q-8 18.9-14 61c-2.3 16.1-6.6 43.3-9.7 71.1c-2.5 21.9-8.1 44.4-9.9 61.1q-1.8 17.4-7.4 68.5l-13.5-8.5c-1.9-1.7-4.6-4-3.8-6.5c3.7-12 10.8-51.6 15-86q0-0.1 0-0.1q0.3-2.5 0.6-5q0-0.1 0-0.2c0.8-6.9 1.5-13.5 1.9-19.6c0.4-4.6 0.1-9.2-0.6-13.6q-1.8-30.9-2.8-63.6c-1-13.3-1.5-25.8-1.9-37.4q42.3-20 46.1-21.2z" /><path class="s24" d="m2334.5 1289.7q-3.1 10.7-12.4 77.3c0 19.9 12.2 62.9 20.3 85.6c2.1 6-7.7 13.4-13.3 16.2l-35.1 15.6q-2.5-28-6-63.2c-1.8-17.9-4.2-34.6-6.5-56c-2-20-5.1-44.6-4.1-56.2c5.8-68.8 22.6-86.8 25-89.5c1.8 0.7 8.6 3.2 10.6 4c11.3 4.5 34.3 12.6 37.4 14.9c5.4 3.8 61.1 74.9 61.7 81.3q0.9 8.8-65.5 80.1q-11.2-14.1-14.1-21.8c-0.5-1.3 42.4-40.5 36.5-53.3q-6.5-14.3-34.5-35z" /><path class="s25" d="m2260.5 1224c0.3-0.7 1.1-3.1 1.2-4.5c0.2-1.4 0.3-3 0.3-4.6q0-0.9 0-1.9c0-1.8 0-3.5 0-5.1q-0.1-3-0.2-5.2q37.5-22.7 36.3-16.4q-4.4 23.3-4.7 34.9c-12.6 9.1-34.5 6.3-32.9 2.8z" /><path class="s26" d="m2273.9 1243q-6.5 3.6-10.1-1.3l6.2-8.4z" /><path class="s26" d="m2270.6 1241.8q-6.5 34.6-8.5 161.1l-7.5 14.7l-7.9-14q-4.9-70.7 18.7-161.6z" /><path class="s25" d="m2283.8 1225.7q-3.1 5.5-13.8 7.6l-6.7-7.8q23.7-5.4 20.5 0.2z" /><path class="s27" d="m2261.8 1218.7q0.8 5.9 8.2 14.6l-8.1 10.9l-4.4-22.6z" /><path class="s27" d="m2300.2 1218.7l-25.2 27.1l-5-12.5q10.8-4.3 24-20.2z" /><path class="s24" d="m2116.5 1273.4q16.4 15.4 29.5 24.2c8 5.4 23.2 14.5 24.6 13.6c1.5-0.9 16.9-31.3 18.8-35.7c2-4.3 14.2-27.6 19.2-31.3q5.5-4 15-3q22.7 14.7-5.6 47.8q-7.4 13.2-17 27q0 0.1 0 0.1c-2.4 3.4-4.9 6.9-7.5 10.2c-7.8 10.1-17.2 20.9-23.4 22.4q-13.5 3.3-70.5-58.7z" /><path class="s28" d="m2249 1424h23v17.5h-23z" /><path class="s29" d="m2262 1207.9q18.9-6.3 25.6-11.1q-4.1 10.9-25.6 18.1q0-0.9 0-1.9c0-1.8 0-3.5 0-5.1z" /><path class="s18" d="m2348.3 1390c-7.2 8.7-13.9 12-16.8 10.2c-3-1.9-11.2-17.5-7.3-21.1c3.9-3.7 8.1 0.3 11.9 0.4q2.1 0 4.1-1.7q15.2 3.6 8.1 12.2z" /><path class="s18" d="m2338.8 1398.7c-6 2.4-22.1 10.5-25.1 9c-2.6-1.3-0.2-2.9 3.3-4.5c-4.6 2.1-16.1 7.3-18.2 3.8c-0.4-0.7-0.5-1.2 1-2.3c-2.9 1.3-3.1 1.1-3.9-0.7c-0.7-1.5 6.8-6.8 13.9-11.5q6.7-4.4 6.5-3.9q0.8-1.6-5.8 1.1c-7.2 2.9-13.5 7.9-14.8 5.2c-0.8-1.7 7.4-7 14.5-10.4q8-3.9 15.5-6.5q19.7 18.1 13.1 20.7z" /><path class="s24" d="m2357.9 1349.5l22.3 13q-5.1 5.8-33.6 37.3q-12.5-12.2-14.1-21.8z" /><path class="s18" d="m2310.5 1149.8c1.3 14.9-12.2 46.2-20.8 51.8c-8.7 5.5-36.4 8.3-41.9 6.4c-5.6-1.9-5.4-21.8-6.5-23.7c-1.1-1.9-7.5-5.3-6-7.4c1.5-2.2 12.1-15.1 9.3-17.8q-3.5-3.2 8.1-16.2c20.4-22.6 56.4-8 57.8 6.9z" /><path class="s24" d="m2250.3 1145.7q-4.3-18 13.4-26.3c17.7-8.4 40.1 19.1 43 20.6c2.9 1.5 20.2 6.9 4 35.6q-13.9 24.6-15.3 25.5q-2-16.7-4.6-19.8q-4.2-4.8-15.4-6.6q8.6-12.7 0.8-16.6c-7.7-3.9-16.8-13.5-25.9-12.4z" /><path class="s18" d="m2286 1168.8c1.2-1.7 5.5-9.4 11.4-2.9c5.9 6.5-9.2 19.3-10.5 19.2c-1.3-0.1-10.8-1.7-0.9-16.3z" /><path class="s30" d="m2066.4 1341.4q-3.4 13.5-3.9 15.5q-0.5 2.1-21.7-3.5v-16.6q23.1 2.3 25.6 4.6z" /><path class="s31" d="m2062.9 1355.2q6 9 12.2 13.4c6.2 4.3 30.2 9.9 33.8 14.1c2.5 3 6 14.3-32.5 9.1c-27.4-3.7-40.9-2.7-43.4-7.5q-2.5-4.8 7.8-32.4q5.9 3.2 22.1 3.3z" /><path class="s32" d="m2048.4 1864.3l89.8-922.4l9.7 0.9l-89.8 922.5z" /><path class="s32" d="m1891.6 1849.1l89.7-922.4l9.7 0.9l-89.7 922.5z" /><path class="s32" d="m1983.9 950l1-9.7l156.8 15.2l-0.9 9.7z" /><path class="s32" d="m1976.8 1023l1-9.7l156.8 15.2l-0.9 9.7z" /><path class="s32" d="m1969.8 1095.9l0.9-9.7l156.9 15.2l-1 9.7z" /><path class="s32" d="m1962.7 1168.8l0.9-9.6l156.9 15.2l-1 9.7z" /><path class="s32" d="m1955.6 1241.8l0.9-9.7l156.9 15.2l-0.9 9.7z" /><path class="s32" d="m1948.5 1314.7l1-9.7l156.8 15.3l-0.9 9.7z" /><path class="s32" d="m1941.4 1387.7l1-9.7l156.8 15.2l-0.9 9.7z" /><path class="s32" d="m1934.4 1460.6l0.9-9.7l156.9 15.2l-1 9.7z" /><path class="s32" d="m1927.3 1533.6l0.9-9.7l156.9 15.2l-1 9.7z" /><path class="s32" d="m1920.2 1606.5l0.9-9.7l156.9 15.2l-0.9 9.7z" /><path class="s32" d="m1913.1 1679.4l1-9.7l156.8 15.3l-0.9 9.7z" /><path class="s32" d="m1906 1752.4l1-9.7l156.8 15.2l-0.9 9.7z" /><path class="s32" d="m1899 1825.3l0.9-9.7l156.9 15.2l-1 9.7z" /><path class="s18" d="m2274 814q-2 2.4-3.4 3.1q-2.7 1-4.5 1.8c-0.6 0.3-1.1 0.5-1.4 0.7c-1.3 0.8-3.9 3-7.5 4q-3.6 1-20 4.8l-3.9-9.8l-2.7-7.8q15.2-19.7 18.5-21q0.4-0.2 0.9-0.4c2.9-0.9 5.4-0.3 7-0.6c0.5-0.1 6.3-0.8 7.6 0.4c1.7 1.7 2.2 3.6 1.9 5.2q3.3 3.4 3.5 6.6q3.1 3.1 2.3 7.1q2.8 3.5 1.7 5.9z" /><path class="s8" d="m2085.3 879.3q1.3-0.1 3.6-0.3c13.9-1.5 64.6-7 74.9-12.5q11.9-6.3 66.5-58.1q17.1 13.4 19 20q-36.1 44-47.5 50.3c-7.4 4.2-46.4 32.8-78 48.6c-16.9 8.5-21.8 11.8-25.6 14.3c-8.2 5.2-27.5-42.4-12.9-62.3z" /><path class="s31" d="m2092.6 1056.2q15.5 57.4 19.5 77.9c3.6 17.9 10.7 65.5 11.7 76.8c1.1 11.3-45.6 120.8-50.4 140.6l-42.5-6.8q44.8-114 33.1-139.3c-17.4-37.7-19.6-36.6-33.3-67.6c-13.7-31-45.1-31.8-53.5-89.4q104-10.4 115.4 7.8z" /><path class="s18" d="m2017.1 777.5q28.2-10.6 41.2 10.9c13 21.5 11.7 64.4-2.5 69.7c-14.2 5.3-35.5 2.6-42.8-10.9c-7.3-13.4-13.9-32.8-13.6-45.8c0.4-13 10.3-20.2 17.7-23.9z" /><path class="s18" d="m2051.1 856.8q-1.1 7.4 0.7 11q1.9 3.7-35.4 3.8q-3.1-19.8-8.8-36.6q-5.8-16.7 43.5 21.8z" /><path class="s33" d="m1997.1 796.1q-1-14.7 24.9-21.8c33.8-11.8 46.9 23.6 40.5 28.7q-6.5 5.1-2.2 17.6l-4.7-0.3l-2.7-4q-0.1 2.6-4.5 4.1c-4.4 1.6-17.2 15.6-27.7 17.2q-10.5 1.7-13.1-2.6c-5.8-7.3-9.6-24.1-10.5-38.9z" /><path class="s18" d="m2049.9 825.9c-3.4 0.8-9.4-9.3-7-16.9c2.4-7.6 8.7-0.5 9.3 2c1.5 6.2 1.1 14-2.3 14.9z" /><path class="s8" d="m1970.3 880.2q40.9 26.9 19.1 97.3l-29.3-1h-1.7c-2.3-0.1-4.5-0.9-6.4-2.2c-2.9-1.9-7.1-5.9-7.4-9.6c-2.8-34 24.5-84.4 25.7-84.5z" /><path class="s31" d="m2040.8 1351.9q5.9 3.2 22.1 3.3q6 9 12.2 13.4c3.5 2.4 12.9 5.3 20.9 8.1l-1.6 16.5c-4.7 0-10.6-0.4-18-1.4c-27.4-3.6-40.9-2.7-43.4-7.5q-2.5-4.8 7.8-32.4z" /><path class="s8" d="m2024.1 874.7q-14.8-0.6-10.9-8.2l2-1.8q12.9-4.3 35.9 1c11.1 10.8-12.2 9.7-27 9z" /><path class="s30" d="m1961.2 1404.7q-3.4 13.5-3.9 15.6q-0.5 2-21.7-3.6v-16.6q23.1 2.4 25.6 4.6z" /><path class="s31" d="m2037.3 1130.5c-1 11.7-31.2 115.4-37.3 129.9q-6.1 14.6-31.9 156.9l-39.7-4.6q15.5-80.5 16.1-98.9c0.5-18.5 10.2-74.1 13.6-108.6c3.1-30.9 7-63.3 9.1-92.9q2.3-31.9 10-63.9q61.1 70.5 60.1 82.1z" /><path class="s31" d="m1957.7 1418.5q6 9.1 12.2 13.4c6.2 4.3 30.3 9.9 33.8 14.1c2.5 3 6 14.4-32.5 9.2c-27.4-3.7-40.9-2.8-43.4-7.6q-2.5-4.7 7.8-32.4q5.9 3.2 22.1 3.3z" /><path class="s8" d="m1962.7 1124.3l9.6-54.2c2.7-22.7 8-47.3 7.7-51.9c-0.7-11.3-2.9-27.4-5-41q0-0.1 0-0.1q0-0.1 0-0.1l-4.7-96.8q2.7-1.8 5.6-3q15.4-6.3 41.3-11.5h33.9q21.1 6.4 37.8 13.3q3.7 1.5 7.7 3.2q1.9 0.7 4.7 2.4c7 4 19.1 13.6 20.9 31.8c0.2 2.2 0.8 6.1 1.6 10.9c-7.1 3.6-13.5 7-18.6 9.9c-3.3 1.9-6.1 3.6-8.1 5.1l-3.7 20.7c0.3 20.4 0.4 53.1-0.2 57.4c-0.9 6.3 10.8 107 7.4 107.5q-132.4 18.9-137.9-3.6z" /><path class="s25" d="m349.2 1743.6q7.4-6.8 14.9-10.8l12.4 13.2q-9.6 5.5-9.3 10.3q-25.4-5.9-18-12.7z" /><path class="s25" d="m644.3 1761.9q-0.5-7.7 8.4-20.4l15.6 3.2q-3.6 5.7-2.7 17.4q-20.8 7.4-21.3-0.2z" /><path class="s25" d="m395.2 1802.6c-0.2 4.3 0.1 6.8-13.4 6.5c-13.4-0.3-25.9-16.7-34.5-28.3c-8.7-11.6-20.3-17.3-12.6-24.7q1.4-1.4 2.9-2.8c7.3-6.5 15.8-12.9 17-14.2q1.3-1.5 12.8 15.2q-1.3 8.2 0.7 13c2 4.9 4.9 22.3 11.1 25.4q0 0 0 0c6.3 3.1 16 8.9 16 9.9z" /><path class="s25" d="m704.7 1800.3c-8.9-0.5-34.2-2.6-48.4-1.6c-14.1 1-19.5-1.3-18.2-11.4q0.1-0.8 0.3-1.7c1.6-9.8 5.9-22.1 6.3-26.2q0.5-4.4 18.2-1.4q8.9 14.2 14 17.1c5 3 20.4 9.3 26.2 12.1q0.7 0.4 1.4 0.6c6.3 2.4 16.9 3 18.3 6.5c1.6 3.7-9.1 6.5-18.1 6z" /><path class="s34" d="m704.7 1800.3c-8.9-0.5-34.2-2.6-48.4-1.6c-14.1 1-19.5-1.3-18.2-11.4q0.1-0.8 0.3-1.7c3.4-2.2 27.8 0 42.2 2.4q14.4 2.3 23.9-0.2c6.3 2.4 16.9 3 18.3 6.5c1.6 3.7-9.1 6.5-18.1 6z" /><path class="s34" d="m395.6 1802.4c-0.2 4.4-0.3 7-13.8 6.7c-13.4-0.3-25.9-16.7-34.5-28.3c-8.7-11.6-20.3-17.3-12.6-24.7q1.4-1.4 2.9-2.8c0.4 0.4 17.3 15.6 22.5 25.9c8.7 17.3 18.7 13.4 19.1 13.5q0 0 0 0c6.3 3.1 16.4 8.7 16.4 9.7z" /><path class="s35" d="m728 1628q-14.7 22.3-59.7 129.8l-35.4-3.6q25.1-75.4 37.4-103.2c9.1-20.6 21.6-30.7 9.8-36.5c-10-4.9-70.2-29.1-95.7-42.8c-3.3-1.8-6-3.4-7.9-4.8q-1.3-0.8-2.1-1.6c-11.7-10.6 14.6-85.5 55.6-61.6q89.1 71.2 95.9 83.3c6.7 12.1 16.8 18.6 2.1 41z" /><path class="s35" d="m628.1 1501.4q-60.5 84.9-115.5 130.8c-15.5 13-28.2 23.7-50.4 40.3c-11.8 8.9-32.7 27.4-49.6 42.9l-0.7 0.6c-12.1 11.1-22.1 20.4-25.2 23.3q-0.2 0.1-0.3 0.2l-0.4 0.4l-11 11.2l-15.9-15.5q18.9-22.8 29.8-40.5c15.1-24.8 37.3-52.3 48.7-60.2c19.7-13.6 38.8-21.7 46-34.6q7.2-12.8 32.1-64.7q5.7-53.9 38.8-65.8q31.3-11.3 73.6 31.6z" /><path class="s25" d="m663 1275.6c-1.6 2.2-2.8 5.1-3.8 8.3c-0.9 2.9-1.6 6.1-2.1 9q-1.1 6.3-1.4 11.5q-34.9-10.2-28.5-18.1q6.4-7.8 4.8-33.1q36.1 15 31 22.4z" /><path class="s18" d="m687.8 1208.7q8.5 8.6 2.8 31q0.7 18.2 3.3 21.5c2.5 3.4-7.8 3.8-9 6c-1.3 2.2-4 12.7-11.6 18.6c-7.6 5.9-41.4-16-42.3-27c-0.9-11-22-59.5 16.8-58.9q38.7 0.7 40 8.8z" /><path class="s36" d="m677 1407q-2.2 3.7-4.8 7.8c-4.7 7.4-10.6 15.7-17.5 25.4c-1.5 2.1-3.4 4.5-5.1 7.4c-8.9 15.8-16.3 42.9-18.7 52.6q-0.6 2.3-0.9 3.5q-46.8 1-96-29.4q30.8-32.6 42.8-57.7c3.3-8.9 5.2-18.8 5.8-31.9c1.8-37.9 12.3-58.8 22.5-75.3q10.2-16.5 22.1-23.1l28.7 17.4c3.3 10.8 15 22.7 26.5 49c8.4 19.4 6.8 33.2-5.4 54.3z" /><path class="s37" d="m655.3 1240.1q-22.1-0.8-23.2 25.4c-4.9-17.3-24.8-70.5 21.5-75.6q46.3-5.1 38.6 41.7c-9.9 4.4-14.8 9.2-36.9 8.5z" /><path class="s25" d="m651.1 1249.3c-2.8 3.3-9.8-4.5-10.4-11.9c-0.5-7.3 9.1-9.2 11.5-4.2c3.5 7.3 1.6 12.7-1.1 16.1z" /><path class="s37" d="m631 1228c-9.2 11.4-28.5-10.2-18-24q10.5-13.8 22.9-0.1q4.4 12.8-4.9 24.1z" /><path class="s29" d="m659.2 1283.9c-0.9 2.9-1.6 6.1-2.1 9q-11.4-6.2-19-23.3q8 8 21.1 14.3q0 0 0 0z" /><path class="s37" d="m623 1226.7q-13.4 0.1-17.8 37.9q-4.4 37.7-51.9 63.3c27.2-27.5 36.5-61.1 32.5-89.8c-4.1-28.6 11.9-48.4 24.9-48.2q13.1 0.1 18.7 9.3z" /><path class="s18" d="m741.7 1464.3c3.9-2.7 15 1.5 24.7-9.9c9.7-11.4 14.4-18 15.8-18.2c1.4-0.2-6.2 25.7-8.4 28.2c-2.1 2.6-4.9 14.3-5.7 14.9c-0.9 0.5-7.1-1.2-10.1-1.6q-2.9-0.5-15.4-0.7q-4.8-10-0.9-12.7z" /><path class="s38" d="m576.5 1566.9q25.9-30.4 27.9-34c-1.1 2.3-14.7 32.3-20 38.8c-3.3-1.8-6-3.4-7.9-4.8z" /><path class="s39" d="m677 1407q-2.2 3.7-4.8 7.8q-14.7-44.8-16.2-55.8q14 31.3 21 48z" /><path class="s36" d="m748.3 1478.8q-82.4-7.8-94.8-31.1q-14.9-28-43-100.1q-8.1-23.2 12.2-29.8q20.4-6.7 26.8 16.3q23.4 91.1 29.3 96.8q22.7 21.5 69.1 32.1z" /><path class="s40" d="m623.4 1288.9l6.6-8.2l28.1 17.1l0.1 14.2z" /><path class="s41" d="m827.2 1384c52-54.3 124.7-81.1 196.8-76.3c43.7 2.8 87.2 17.2 125.8 44c113.2 78.6 141.2 234.1 62.6 347.4c-78.6 113.2-234.1 141.2-347.3 62.6c-67.5-46.9-104.7-121.1-107.1-197.3c-0.7-20.9 1.3-41.8 5.9-62.4c6.9-30.6 19.6-60.3 38.6-87.6c7.5-10.9 15.8-21.1 24.7-30.4z" /><path class="s42" d="m1027.3 1256.6l-20 300l-217-208c62.5-65.5 150.1-97.7 237-92z" /><path class="s43" d="m821.2 1378.2l186.1 178.4l-251.5-56.5c7-31.6 20.2-62.3 39.8-90.5c7.8-11.3 16.4-21.8 25.6-31.4z" /><path class="s34" d="m1007.3 1556.6l-273.4 8.4c-0.7-22.8 1.4-45.8 6.4-68.4h0.1z" /><path class="s44" d="m1524.2 1732.3q7.6 11.3 18.3 13.8c10.6 2.5 21.1 6.4 21.2 13.1c0.1 6.7-30.8 10.7-43 4c-18.2-10.2-20.1-7.1-22.1-12.2c-2-5 2.4-18.6 2.3-20.2q-0.2-2 23.3 1.5z" /><path class="s20" d="m1523 1726.7q1.4 5.5 1.2 5.6c-0.2 0.1-24 2.9-23.3-1.5q0.6-3.5 1.4-7.4z" /><path class="s44" d="m1444.1 1731.5q5.4 10.9 14.6 14.6c9.9 4 17.9 8.5 17.7 15.1c-0.2 6.5-24.2 13.2-41.7 0.6c-11-8-14.5-8-16.3-13c-1.8-5 3.1-18 3-19.6q-0.1-1.9 22.7 2.3z" /><path class="s20" d="m1444.3 1725.9q0 5.5-0.2 5.6c-0.3 0.1-23.3 2-22.7-2.3q0.5-3.4 2.3-7.5z" /><path class="s45" d="m1528.7 1393.7q21.4 94.3 26.3 123c4.1 24.5 7.5 49.9 5.5 67.6c-2.5 21.8-33.4 135.1-32.2 141.5q1.3 6.4-32.3 1q23.5-126.3 18.8-149.8c-3.5-17.4-34-133.1-38.7-127.2c-4.6 5.9-10.4 109.2-13.9 126.3q-3.4 17.2-14.1 152.6q-23.7 3.5-30.1-1.9q-2.9-115.6-0.7-147.7c0.9-12.3-14.3-146.9 5.2-201.1q10.3-28.6 106.2 15.7z" /><path class="s46" d="m1621.8 1307.9c-15.3-2.1-63.2 19.1-67.6 17.5c-3-1.1-10-24-15-41.3c-3-10.3-5.2-18.6-5.6-19.3c0.1 0.4 0.8 8.3-0.1 18.6c-0.1 0.7-0.4 0.8-0.5 1.5c0 0.2-0.1 0.7-0.2 0.9c-1.1 2.6-1.5 7.3-2.5 11.3c-1.6 5.9-2.4 13.9-1.8 22.2v0.1q0 0.1 0 0.2q0 0.2 0 0.5q0 0.1 0 0.2c-0.5 14.9 0.6 30.9 1 39.4c0.7 13.2-3.7 19.2-3.8 19.3q0 0 0 0l-4.6-0.6l-3.3-0.5h-0.1l-4.4-0.6l-17.4-2.4l-6.3-0.9l-1.5-0.2l-11-1.6l-31-4.4l-3.5-0.4l-1.4-0.2l-11.7-1.7l-5.3-0.7q-4.5-31.9-4.8-49.2c-0.3-15.8-8.8-47.9-10.2-53.1q0 0 0-0.1q0-0.1-0.1-0.1q0-0.2 0-0.3q0 0 0-0.1q-0.1 0-0.1 0q0 0 0 0q0-0.1 0-0.1q-25.3 26.7-30.2 38.3c-1.5 3.5-6.1 13.1-12 24.8c-4-7.7-6.5-13-6.5-14.3q0-0.2 0-0.5c0.4-11.5 12.5-58.1 22-88.5c7.3-14.9 13.7-26.8 15.7-28.3c3.1-2.2 16.2-7.8 27.5-12.3q0.6-0.2 1.1-0.5q1.6-0.6 3.1-1.2q0.8-0.3 1.5-0.6q0.4-0.1 0.8-0.3q0.4-0.1 0.7-0.2c5.7-2.2 10-3.7 10.9-3.7q0.2 0 0.7 0q0.5 0 1.4 0c7 0.5 28 2.4 34.7 3.1c1.3 0.1 2 0.2 2.1 0.2q0 0 0 0q3.3 1.4 8.1 3.6l0.4 0.2c3 1.4 6.4 3.2 9.9 5.1c7 3.9 14.8 8.4 21.2 11.4c6.3 3 14.9 7.2 15.6 7.8l31.9 92l55.4-10.2z" /><path class="s47" d="m1525.7 1379q2.3 2.8 3 14.7q-96.1-11.2-106.2-15.7q-0.4-13 1.7-13.2q2.4-0.3 101.5 14.2z" /><path class="s18" d="m1449.7 1138.7q-0.1-0.5-0.1-0.8c0-4.7 12.8 7 22.1 16.2q5.3 5.3 9.4 9.7q-0.1 0.6-0.1 1.7c-0.2 1.7-0.3 4.4-0.2 6.8c0.1 2.6 0.6 4.9 1.7 5.5q3 1.4-9.2 16.7q-29.2-8.2-29.5-23.3q8.2-21.9 5.9-32.5z" /><path class="s44" d="m1446.2 1367.1q-2.1 13.2-2.3 16.7l-4.4-0.9q1.2-14 1.9-16.4z" /><path class="s44" d="m1517.7 1377.5q1.7 12 1.7 16.6l-4.7-0.7q-1-15-1.5-16.5z" /><path class="s29" d="m1471.7 1154.1l5.8 1.8q3.8 4.7 6.4 9.3q-1.5 0.3-2.9 0.3c-0.2 1.7-0.3 4.4-0.2 6.8c-9.5-3.7-17.9-12.9-22.4-18.6c-2.1-2.6-3.3-4.5-3.4-4.6q0 0 0 0z" /><path class="s18" d="m1441.3 1094.3q7.8-15 57.6-0.9q13.2 29.1-5 64.8c-2.3 4.5-6.5 6.2-10 7q-1.5 0.3-2.9 0.3c-8.8 0.2-17.8-6.6-22.6-11.8c-1.7-1.9-3-3.5-3.4-4.6q0 0 0 0c-0.7-1.6-3.1-5.5-5.6-11c-5.9-12.9-13.5-33.3-8.1-43.8z" /><path class="s48" d="m1469.4 1091.9q-14.6 1-2.4 27.3l-8.1-1.4q-3.3-5.6-7.3-3.3q-3.9 2.4-3.7 20.2q-19.7-26.5-15.2-53.7q2.8-17.2 13.1-14.8c4.3-4.8 22.4-3.8 29.8-2.6q7.4 1.1 28 9.7q2.2 2.4 1.1 11.1q-1.1 8.7-5.8 9c-8.3 1.5-14.9-2.5-29.5-1.5z" /><path class="s18" d="m1455.9 1123.9c-3.2 0.3-10.2-7.6-11.2-15.8c-0.9-8.2 13.3-5.3 14 2.6c0.6 6 0.4 12.9-2.8 13.2z" /><path fill-rule="evenodd" class="s49" d="m1360.3 1310.6q0-0.2 0-0.5c0.3-11.5 6-57.4 15.5-87.8c4.6-14.8 5.6-25.1 7.4-26.4c3.1-2.2 30.6-10.3 42.3-14.9q0.6-0.2 1.1-0.5q1.6-0.6 3.1-1.2q0.8-0.3 1.5-0.6q0.4-0.1 0.8-0.3q0.4-0.1 0.7-0.2q0 0 0.1 0.1c1 1.1 6.4 7.3 12.8 16.4c12.1 17.2 27.8 44.9 25.4 70.6c-0.8 8.2-1.7 20-3.3 33.3q-0.2 1.7-0.4 3.4q-0.6 4.6-1.3 9.4q-0.4 2.8-0.9 5.7c-3.2 19.9-13.2 33.4-22.1 49.6q-0.1 0.2-0.2 0.4q-0.1 0.1-0.2 0.3q-0.2 0.5-0.5 1q-0.5 0.9-0.9 1.7q-0.3 0.5-0.5 1q-2.6 4.9-5 10q-1.6 3.2-3.1 6.5q-0.1 0.3-0.3 0.6q-1.6 3.8-3.7 8.7c-0.8 1.8-1.6 3.7-2.5 5.7q-0.8 2-1.7 4q-0.7 1.7-1.4 3.3c-1 2.3-1.9 4.4-2.5 5.8c-0.5 1.1-0.8 1.8-0.9 2.1c-3 7.6-5.2 13.5-6.3 16.3q-0.4 1.1-0.6 1.7l-30.7-16.9c-5.8-3-2.8-18.7-0.6-24.8c1.8-5.2 4.4-10.6 7.3-16.3q1.8-3.5 3.7-7c-9.7-16.8-19.4-34.2-25.6-45.9c-4-7.7-6.5-13-6.5-14.3zm48.9-48.1q0 0 0-0.1q0-0.1-0.1-0.1q0-0.1 0-0.3q0 0 0-0.1q-0.1 0-0.1 0q0 0 0 0q-14.9 23.3-13.8 43.6c0.2 3.2 3.3 11.2 7.9 21.4q0 0 0 0.1c1.7 3.7 3.5 7.7 5.5 11.9q0.1-0.3 0.2-0.5c2.9-7 4.7-13.5 4.7-19.3q-1.2-44.5-4.3-56.6z" /><path class="s49" d="m1648.5 1300.4c-0.7 3.6-92.3 28.6-97.2 26.9c-2.2-0.8-7.4-13.4-12.5-26.9c-1.9-5-3.8-10.2-5.6-15q0-0.1-0.1-0.3c-2 10.8-5.5 22.2-4.6 34.2q0 0 0 0.1c3 38.4 19.2 93 24 108.4c0.8 2.6 0.1 5.4-1.9 7.2l-8.6 8l-3 2.6q-10-30.7-15.1-52.5q-0.2-0.9-0.4-1.7c-1.2-5.1-2-9.6-2.4-13q0 0 0 0c-1.8-17.3-7.6-40.4-10.1-62.9c-3.2-28.5-6.5-56.8-8.9-73.5q-0.3-2.1-0.6-4.1q-0.1-0.8-0.2-1.6q-0.1-0.2-0.1-0.3q-0.2-1.2-0.4-2.4q0-0.2 0-0.4q-0.3-1.8-0.6-3.5q0 0 0 0q-5.3-34.2-9.4-47.9l0.2-0.2c2.8 1.3 6.2 2.9 9.7 4.5c7.3 3.4 15.6 7.2 22.2 10.3c6.3 3 15.8 8.2 16.5 8.7l33.2 86.8l69.6-15.1z" /><path class="s50" d="m1426.6 1180.6c2.1-0.9 4.2-1.7 6.1-2.4c2.5 2.7 42 47.5 38.3 87.1c-1.1 11.9-2.6 31.3-5.9 51.8l-16.2-87.3l6.1-6.2l-14.2-8z" /><path class="s50" d="m1491 1181.6c2.8 1.3 6.2 2.9 9.7 4.5l12.8 32.8l-6 7.6l6.8 7.3l-3.3 81.7c-3.2-28.5-6.5-56.8-8.9-73.5q-6.2-43.2-11.5-60.6z" /><path class="s51" d="m1432 1178.4l11.8-7.2q0.3 6.5 29.5 23.3l-8.3 23.4z" /><path class="s51" d="m1490.6 1181.4l-1.2 34.2l-16.1-21.1q7.3-13.1 7.7-20z" /><path class="s43" d="m1483 1210q-4.9 3.1-11.8 0.6q-1.1-3.5 2-16.1q6.3 6.7 9.8 15.5z" /><path class="s52" d="m1487.9 1375c1.7-8.7 0-35.8 0-36.1l1.5-0.1c0.1 1.2 1.8 27.6 0 36.5z" /><path class="s53" d="m1477.1 1371.2q14.2 1.7 18.9 2.9l-0.7 15.8l-18.5-2z" /><path class="s43" d="m1480.2 1208.8q15.8 39.9 13.2 84.4q-2.6 46.2-7 63l-9.7 12.2l-4.3-15q13-58.9 4.6-116.2q-1.5-10.4-3.8-30.1z" /><path class="s18" d="m1432.8 1396.9q3.4 6.8 6.8 7.9q3.4 1.1 8.3 6.6l-23.8 12.6q-6.3-12.4-6.6-20.3q-0.3-7.9 15.3-6.8z" /><path class="s46" d="m1435.1 1397.5l1.6 3.2q-15.1 11.1-19.2 11.8l-1.4-4.2z" /><path class="s49" d="m1436.7 1397.7q-11.4 9.4-20.9 13.7l-32.1-57.8l16.6-32.2q35.6 70.6 36.4 76.3z" /><path class="s45" d="m1533.1 1285.1q0 0 0 0q0.1-9.5-0.4-20.2c-0.5-10.1-1.5-21.3-3.7-26.5q9.4 15.7 10.2 45.7c0.1 5 0 10.5-0.4 16.3c-1.9-5-3.8-10.2-5.6-15z" /><path class="s45" d="m1392.4 1370.8l22 38.1l-25.7-31.1q1.8-3.5 3.7-7z" /><path class="s32" d="m1567 1327.9l25.8-106.5c0.9-3.9 4.5-6.7 8.5-6.7h59.4c5.8 0 10 5.3 8.6 10.9l-25.8 106.5c-0.9 4-4.5 6.7-8.6 6.7h-59.4c-5.7 0-9.9-5.3-8.5-10.9z" /><path class="s18" d="m1648.2 1309.2c-2.9-2.7-8.5-4.2-13.3-7.4q-4.8-3.2-0.8-6.5c-4.9-1.7-4.4-4-3.8-5.5q0.9-2.1 6.3-1.5q-4.9-1.1-6.9-2c-2-0.8-1.3-4.3 1.8-5.4q3-1.1 15.5 2q-2-1-8.2-4.1c-6.1-3.1-7.5-5.9-3.8-7.2c2.5-1 7.4 1 16.9 7.4q7.2 4.8 6.6 5.4q-6.8 28-10.3 24.8z" /></svg>