<?xml version="1.0" encoding="UTF-8" standalone="no"?>
<!-- Created with Inkscape (http://www.inkscape.org/) -->

<svg
   width="64.293747mm"
   height="65.087502mm"
   viewBox="0 0 64.293747 65.087502"
   version="1.1"
   id="svg1"
   xmlSpace="preserve"
   xmlns="http://www.w3.org/2000/svg"
   xmlnsSvg="http://www.w3.org/2000/svg"><defs
     id="defs1" /><g
     id="layer1"
     transform="translate(-73.025002,-51.990623)"><path
       id="path35"
       style="opacity:1;fill:#F3C043;fill-opacity:1;stroke-width:0.252711"
       d="m 80.432411,59.742351 c 0,8.015473 0,16.030945 0,24.046417 11.337349,0 22.674689,0 34.012049,0 0.22363,0.814525 -0.25248,0.936697 -0.97047,0.819552 -11.01386,0 -22.027721,0 -33.041579,0 0,3.956475 0,7.912949 0,11.869425 16.397582,0 32.795159,0 49.192739,0 0,-7.652894 0,-15.305789 0,-22.958683 -11.15727,0 -22.31456,0 -33.471836,0 -0.223637,-0.814524 0.25248,-0.936697 0.970474,-0.819552 10.833792,0 21.667572,0 32.501362,0 0,-4.488464 0,-8.976928 0,-13.465392 -16.39758,0 -32.795157,0 -49.192739,0 0,0.16941 0,0.338822 0,0.508233 z" /><path
       style="opacity:0.216279;fill:#000000;stroke-width:0.264583"
       d="M 76.486142,55.217903 H 133.54818 V 74.347718 H 94.727287 V 71.354299 H 129.52578 V 59.287081 H 80.508549 v 23.760262 h 35.359761 v 2.993416 H 76.486142 Z"
       id="path24" /><path
       style="opacity:0.216279;fill:#000000;stroke-width:0.264583"
       d="m 87.524374,71.354299 h 4.209494 v 2.993419 h -4.209494 z"
       id="path25" /><path
       style="opacity:0.216279;fill:#000000;stroke-width:0.264583"
       d="m 118.76818,83.047343 h 4.02241 v 2.993416 h -4.02241 z"
       id="path26" /><path
       style="opacity:0.216279;fill:#000000;stroke-width:0.264583"
       d="m 129.52578,76.96696 h 4.0224 v 23.66672 h -26.3795 v 8.60608 h 15.62191 v 4.0224 H 87.524374 v -4.0224 h 15.341266 v -8.60608 H 76.486142 V 88.379369 h 4.022407 v 8.044812 h 49.017231 z"
       id="path27" /><path
       style="opacity:1;fill:#000000;stroke-width:0.353553"
       d="m 54.977552,223.97607 v -7.60139 H 83.96893 112.96031 V 200.11122 183.84776 H 63.10928 13.258252 v -23.15774 -23.15775 h 7.424621 7.424622 v 15.20279 15.2028 h 92.807765 92.80776 V 131.16831 94.398755 h 7.42463 7.42462 v 44.724505 44.7245 h -49.85103 -49.85103 v 16.26346 16.26346 h 29.52171 29.52171 v 7.60139 7.6014 H 121.44559 54.977552 Z"
       id="path31"
       transform="matrix(0.26458333,0,0,0.26458333,73.025002,51.990623)" /><path
       style="opacity:1;fill:#000000;stroke-width:0.353553"
       d="M 13.258252,70.533901 V 12.374369 H 120.91526 228.57227 V 48.436815 84.49926 H 155.38672 82.201163 v -5.656854 -5.656854 h 65.760927 65.76093 V 50.381358 27.577164 H 120.91526 28.107495 v 44.901281 44.901285 h 66.82159 66.821595 v 5.65685 5.65685 H 87.504464 13.258252 Z"
       id="path32"
       transform="matrix(0.26458333,0,0,0.26458333,73.025002,51.990623)" /><path
       style="opacity:1;fill:#000000;stroke-width:0.353553"
       d="m 54.977552,78.842406 v -5.656854 h 7.778175 7.778174 v 5.656854 5.656854 h -7.778174 -7.778175 z"
       id="path33"
       transform="matrix(0.26458333,0,0,0.26458333,73.025002,51.990623)" /><path
       style="opacity:1;fill:#000000;stroke-width:0.353553"
       d="m 173.06438,123.03658 v -5.65685 h 7.42463 7.42462 v 5.65685 5.65685 h -7.42462 -7.42463 z"
       id="path34"
       transform="matrix(0.26458333,0,0,0.26458333,73.025002,51.990623)" /></g></svg>
